<svg width="194" height="38" viewBox="0 0 194 38" fill="none" xmlns="http://www.w3.org/2000/svg">
<path d="M5.424 27.304C5.936 28.776 6.816 29.96 8.064 30.856C9.376 31.784 10.8 32.248 12.336 32.248C12.944 32.248 13.264 32.232 13.296 32.2L13.68 32.152L14.064 32.104L14.352 32.056L14.592 32.008C15.584 31.784 16.624 31.336 17.712 30.664C18.256 30.312 18.848 30.264 19.488 30.52C20.16 30.776 20.624 31.192 20.88 31.768C21.456 32.952 21.072 34.008 19.728 34.936C18.128 35.864 16.72 36.472 15.504 36.76L15.168 36.808L14.784 36.856L14.304 36.904L13.776 36.952L13.056 37H12.336C9.008 37 6.16 35.816 3.792 33.448C1.456 31.112 0.288 28.28 0.288 24.952C0.288 21.592 1.456 18.744 3.792 16.408C6.128 14.072 8.976 12.904 12.336 12.904C15.568 12.904 18.304 13.928 20.544 15.976C23.104 18.28 24.384 21.272 24.384 24.952C24.384 25.528 24.16 26.088 23.712 26.632C23.168 27.08 22.592 27.304 21.984 27.304H5.424ZM19.296 22.552C18.816 20.952 17.888 19.72 16.512 18.856C15.328 18.056 13.936 17.656 12.336 17.656C10.8 17.656 9.376 18.12 8.064 19.048C6.816 19.944 5.936 21.112 5.424 22.552H19.296ZM45.7301 33.16C46.1461 33.672 46.3061 34.264 46.2101 34.936C46.1141 35.576 45.8101 36.088 45.2981 36.472C44.8501 36.824 44.3701 37 43.8581 37C43.1221 37 42.4981 36.696 41.9861 36.088L36.3701 28.84L30.7541 36.088C30.2421 36.696 29.6181 37 28.8821 37C28.3701 37 27.8901 36.824 27.4421 36.472C26.9301 36.088 26.6261 35.576 26.5301 34.936C26.4341 34.264 26.5941 33.672 27.0101 33.16L33.3461 24.952L27.0101 16.744C26.5941 16.232 26.4341 15.64 26.5301 14.968C26.5621 14.36 26.8661 13.832 27.4421 13.384C27.9541 12.968 28.5301 12.808 29.1701 12.904C29.8101 13 30.3381 13.304 30.7541 13.816L36.3701 21.064L41.9861 13.816C42.4021 13.304 42.9301 13 43.5701 12.904C44.2101 12.808 44.7861 12.968 45.2981 13.384C45.8741 13.832 46.1781 14.36 46.2101 14.968C46.3061 15.64 46.1461 16.232 45.7301 16.744L39.3941 24.952L45.7301 33.16ZM63.324 12.952C63.932 12.952 64.508 13.176 65.052 13.624C65.5 14.168 65.724 14.728 65.724 15.304C65.724 15.88 65.5 16.44 65.052 16.984C64.572 17.464 63.996 17.704 63.324 17.704H59.916V34.648C59.916 35.224 59.692 35.784 59.244 36.328C58.764 36.808 58.188 37.048 57.516 37.048C56.876 37.048 56.316 36.808 55.836 36.328C55.388 35.784 55.164 35.224 55.164 34.648V17.704H51.708C51.068 17.704 50.508 17.464 50.028 16.984C49.58 16.44 49.356 15.88 49.356 15.304C49.356 14.728 49.58 14.168 50.028 13.624C50.572 13.176 51.132 12.952 51.708 12.952H55.164V3.352C55.164 2.776 55.388 2.216 55.836 1.672C56.38 1.224 56.94 0.999997 57.516 0.999997C58.124 0.999997 58.7 1.224 59.244 1.672C59.692 2.216 59.916 2.776 59.916 3.352V12.952H63.324ZM70.7678 27.304C71.2798 28.776 72.1598 29.96 73.4078 30.856C74.7198 31.784 76.1438 32.248 77.6797 32.248C78.2878 32.248 78.6078 32.232 78.6398 32.2L79.0238 32.152L79.4078 32.104L79.6958 32.056L79.9358 32.008C80.9278 31.784 81.9678 31.336 83.0558 30.664C83.5998 30.312 84.1918 30.264 84.8318 30.52C85.5038 30.776 85.9678 31.192 86.2238 31.768C86.7998 32.952 86.4158 34.008 85.0718 34.936C83.4718 35.864 82.0638 36.472 80.8478 36.76L80.5118 36.808L80.1278 36.856L79.6478 36.904L79.1198 36.952L78.3998 37H77.6797C74.3518 37 71.5038 35.816 69.1358 33.448C66.7998 31.112 65.6318 28.28 65.6318 24.952C65.6318 21.592 66.7998 18.744 69.1358 16.408C71.4718 14.072 74.3198 12.904 77.6797 12.904C80.9118 12.904 83.6478 13.928 85.8878 15.976C88.4478 18.28 89.7278 21.272 89.7278 24.952C89.7278 25.528 89.5038 26.088 89.0558 26.632C88.5118 27.08 87.9358 27.304 87.3278 27.304H70.7678ZM84.6398 22.552C84.1598 20.952 83.2318 19.72 81.8558 18.856C80.6718 18.056 79.2798 17.656 77.6797 17.656C76.1438 17.656 74.7198 18.12 73.4078 19.048C72.1598 19.944 71.2798 21.112 70.7678 22.552H84.6398ZM116.703 34.6C116.703 35.272 116.479 35.832 116.031 36.28C115.551 36.76 114.975 37 114.303 37C113.663 37 113.103 36.76 112.623 36.28C112.175 35.832 111.951 35.272 111.951 34.6V24.952C111.951 23 111.247 21.272 109.839 19.768C108.335 18.36 106.607 17.656 104.655 17.656C102.639 17.656 100.927 18.36 99.5194 19.768C98.0794 21.208 97.3594 22.936 97.3594 24.952V34.6C97.3594 35.272 97.1354 35.832 96.6874 36.28C96.2074 36.76 95.6314 37 94.9594 37C94.3194 37 93.7594 36.76 93.2794 36.28C92.8314 35.832 92.6074 35.272 92.6074 34.6V24.952C92.6074 21.624 93.7914 18.776 96.1594 16.408C98.4954 14.072 101.327 12.904 104.655 12.904C107.983 12.904 110.815 14.072 113.151 16.408C115.519 18.776 116.703 21.624 116.703 24.952V34.6ZM130.449 12.952C131.057 12.952 131.633 13.176 132.177 13.624C132.625 14.168 132.849 14.728 132.849 15.304C132.849 15.88 132.625 16.44 132.177 16.984C131.697 17.464 131.121 17.704 130.449 17.704H127.041V34.648C127.041 35.224 126.817 35.784 126.369 36.328C125.889 36.808 125.313 37.048 124.641 37.048C124.001 37.048 123.441 36.808 122.961 36.328C122.513 35.784 122.289 35.224 122.289 34.648V17.704H118.833C118.193 17.704 117.633 17.464 117.153 16.984C116.705 16.44 116.481 15.88 116.481 15.304C116.481 14.728 116.705 14.168 117.153 13.624C117.697 13.176 118.257 12.952 118.833 12.952H122.289V3.352C122.289 2.776 122.513 2.216 122.961 1.672C123.505 1.224 124.065 0.999997 124.641 0.999997C125.249 0.999997 125.825 1.224 126.369 1.672C126.817 2.216 127.041 2.776 127.041 3.352V12.952H130.449Z" fill="#0D0D0D"/>
<path d="M134.566 3.4C134.566 2.76 134.806 2.2 135.286 1.72C135.734 1.272 136.294 1.048 136.966 1.048C137.542 1.048 138.102 1.272 138.646 1.72C139.094 2.264 139.318 2.824 139.318 3.4V34.648C139.318 35.32 139.094 35.88 138.646 36.328C138.166 36.808 137.606 37.048 136.966 37.048C136.294 37.048 135.734 36.808 135.286 36.328C134.806 35.88 134.566 35.32 134.566 34.648V3.4ZM166.199 34.552C166.199 35.256 165.975 35.832 165.527 36.28C165.079 36.728 164.503 36.952 163.799 36.952C163.351 36.952 162.855 36.728 162.311 36.28C161.767 35.736 161.495 35.16 161.495 34.552C159.511 36.152 157.143 36.952 154.391 36.952C150.999 36.952 148.135 35.832 145.799 33.592C143.431 31.32 142.247 28.504 142.247 25.144C142.247 21.784 143.431 18.92 145.799 16.552C148.167 14.184 151.031 13 154.391 13C157.751 13 160.567 14.184 162.839 16.552C165.079 18.888 166.199 21.752 166.199 25.144V34.552ZM149.159 30.184C150.535 31.56 152.279 32.248 154.391 32.248C156.407 32.248 158.103 31.56 159.479 30.184C160.823 28.84 161.495 27.16 161.495 25.144C161.495 23.096 160.823 21.352 159.479 19.912C158.103 18.44 156.407 17.704 154.391 17.704C152.375 17.704 150.631 18.44 149.159 19.912C147.687 21.384 146.951 23.128 146.951 25.144C146.951 27.128 147.687 28.808 149.159 30.184ZM168.972 3.304C168.972 2.664 169.212 2.104 169.692 1.624C170.14 1.176 170.7 0.951998 171.372 0.951998C171.948 0.951998 172.508 1.176 173.052 1.624C173.5 2.168 173.724 2.728 173.724 3.304V15.256C175.9 13.624 178.332 12.808 181.02 12.808C184.38 12.808 187.228 13.976 189.564 16.312C191.9 18.648 193.068 21.496 193.068 24.856C193.068 28.184 191.9 31.016 189.564 33.352C187.196 35.72 184.348 36.904 181.02 36.904C177.724 36.904 174.892 35.72 172.524 33.352C170.156 30.984 168.972 28.152 168.972 24.856V3.304ZM173.724 24.856C173.724 26.872 174.444 28.584 175.884 29.992C177.292 31.432 179.004 32.152 181.02 32.152C183.036 32.152 184.764 31.432 186.204 29.992C187.612 28.488 188.316 26.776 188.316 24.856C188.316 22.904 187.612 21.176 186.204 19.672C184.7 18.264 182.972 17.56 181.02 17.56C179.004 17.56 177.292 18.264 175.884 19.672C174.444 21.112 173.724 22.824 173.724 24.808V24.856Z" fill="#55D917"/>
</svg>
